<!DOCTYPE svg PUBLIC "-//W3C//DTD SVG 1.1//EN" "http://www.w3.org/Graphics/SVG/1.1/DTD/svg11.dtd">
<!-- Uploaded to: SVG Repo, www.svgrepo.com, Transformed by: SVG Repo Mixer Tools -->
<svg version="1.1" id="Layer_1" xmlns="http://www.w3.org/2000/svg" xmlns:xlink="http://www.w3.org/1999/xlink" viewBox="0 0 511.985 511.985" xml:space="preserve" width="800px" height="800px" fill="#000000">
<g id="SVGRepo_bgCarrier" stroke-width="0"/>
<g id="SVGRepo_tracerCarrier" stroke-linecap="round" stroke-linejoin="round"/>
<g id="SVGRepo_iconCarrier"> <rect x="322.53" y="95.993" style="fill:#AAB2BC;" width="34.672" height="79.967"/> <path style="fill:#FFCE54;" d="M95.99,85.342v255.993h319.991V85.342H95.99z M357.203,175.964h-34.672V92.638h34.672V175.964z"/> <path style="fill:#F6BB42;" d="M351.984,63.998v106.669H330.64V63.998H181.324v106.669v21.327v42.671H74.655v127.998h106.669h21.327 h149.333h21.343h63.998V63.998H351.984z M202.651,85.342h106.677v85.326H202.651V85.342z M181.324,341.335H95.99v-85.342h85.334 V341.335z M351.984,341.335H202.651v-106.67v-42.671H330.64h21.344V341.335z M415.981,341.335h-42.654V170.668V85.342h42.654 V341.335z"/> <g> <path style="fill:#434A54;" d="M138.653,511.985c-23.523,0-42.663-19.123-42.663-42.654v-63.998h85.334v63.998 C181.324,492.862,162.184,511.985,138.653,511.985z"/> <path style="fill:#434A54;" d="M373.327,511.985c-23.53,0-42.687-19.123-42.687-42.654v-63.998h85.341v63.998 C415.981,492.862,396.841,511.985,373.327,511.985z"/> </g> <g> <path style="fill:#656D78;" d="M138.653,469.331c-5.89,0-10.664-4.781-10.664-10.672v-42.67c0-5.875,4.773-10.656,10.664-10.656 s10.672,4.781,10.672,10.656v42.67C149.325,464.55,144.544,469.331,138.653,469.331z"/> <path style="fill:#656D78;" d="M373.327,469.331c-5.906,0-10.688-4.781-10.688-10.672v-42.67c0-5.875,4.781-10.656,10.688-10.656 c5.874,0,10.655,4.781,10.655,10.656v42.67C383.982,464.55,379.201,469.331,373.327,469.331z"/> </g> <g> <path style="fill:#E6E9ED;" d="M426.637,362.663H85.326c-5.891,0-10.671-4.766-10.671-10.672V10.672 c0-5.89,4.781-10.671,10.671-10.671h341.311c5.906,0,10.688,4.781,10.688,10.671v341.319 C437.325,357.897,432.544,362.663,426.637,362.663z M95.99,341.335h319.991V21.343H95.99V341.335z"/> <path style="fill:#E6E9ED;" d="M298.641,245.337h-42.655v-53.343h42.655V245.337z"/> <path style="fill:#E6E9ED;" d="M159.989,159.996h-42.663v-53.327h42.663V159.996z"/> <path style="fill:#E6E9ED;" d="M159.989,309.335h-42.663v-53.342h42.663V309.335z"/> </g> <rect x="74.66" style="fill:#5D9CEC;" width="362.67" height="106.67"/> <rect x="74.66" y="42.671" style="fill:#4A89DC;" width="362.67" height="21.327"/> <path style="fill:#434A54;" d="M298.641,106.669h-85.318c-5.891,0-10.672-4.766-10.672-10.671c0-5.891,4.781-10.656,10.672-10.656 h85.318c5.905,0,10.687,4.765,10.687,10.656C309.328,101.903,304.547,106.669,298.641,106.669z"/> <path style="fill:#E6E9ED;" d="M437.325,426.659H74.655v-85.324h362.67L437.325,426.659L437.325,426.659z"/> <path style="fill:#CCD1D9;" d="M202.651,373.335c0,5.891,4.781,10.654,10.672,10.654h85.318c5.905,0,10.687-4.764,10.687-10.654v-32 H202.651V373.335z"/> </g>
</svg>