<?xml version="1.0" encoding="utf-8"?>
<!-- Uploaded to: SVG Repo, www.svgrepo.com, Generator: SVG Repo Mixer Tools -->
<svg fill="#000000" version="1.2" baseProfile="tiny" id="Layer_1" xmlns="http://www.w3.org/2000/svg" xmlns:xlink="http://www.w3.org/1999/xlink"
	  viewBox="0 0 256 228" xml:space="preserve">
<circle cx="113.7" cy="26" r="17.9"/>
<g id="The_Icons">
	<rect x="189.9" y="150.3" transform="matrix(0.8722 -0.4892 0.4892 0.8722 -47.3768 126.2987)" width="56.2" height="7"/>
	<rect x="195.7" y="157.9" transform="matrix(0.8722 -0.4892 0.4892 0.8722 -51.1887 130.3489)" width="56.2" height="10.4"/>
	<rect x="185.3" y="141.3" transform="matrix(0.8722 -0.4892 0.4892 0.8722 -44.1798 121.5208)" width="50.2" height="8"/>
	<rect x="202.2" y="171.3" transform="matrix(0.8722 -0.4892 0.4892 0.8722 -57.2276 134.1239)" width="51.7" height="10.4"/>
	<rect x="172.9" y="117.5" transform="matrix(0.8722 -0.4892 0.4892 0.8722 -34.7207 112.5793)" width="50.2" height="10.4"/>
	<rect x="178.8" y="128.8" transform="matrix(0.8722 -0.4892 0.4892 0.8722 -39.2578 117.8844)" width="54.2" height="10.4"/>
</g>
<g>
	<path d="M230.1,192.2c-1-2-4-3-6-1.5l-19.4,10.9l-48.7-85.5c-0.5-0.5-3.5-5.5-8-8.5c-6-4-12.9-2.5-13.9-2l-9.9,3.5L97.8,92.2
		l9.9-18.9c0,0,7.5-13.4,0-22.9c-2.5-4-8-7.5-12.4-8.5c-8-1-14.9,2.5-19.4,9L55,90.2c-1,1.5-2.5,5-3.5,7.5c-0.5,1-2,4.5-2.5,8.5
		l-7.5,44.3L9.2,163.8c-10.9,5-7,24.4,10.4,19.4L55,168.3c1-0.5,2.5-1.5,3.5-2.5c0,0,0.5,0,0.5-0.5c1-1,1.5-2,2-3c0,0,0,0,0-0.5
		l7.5-23.4l20.4,21.9l-7,46.3c-0.5,15.4,19.4,14.9,21.4,0l7-45.3c0.5-5-1.5-9.5-3-12.4l-2-4l-20.4-28.3l6-11.4
		c10.4,6.5,23.9,14.9,25.4,15.9c6,4,11.9-0.5,12.9-6l8-3c0,0,4-1,6.5,1c2.5,1.5,4.5,4.5,5,5.5l31.3,55.2c-4.5-4-10.4-7-16.9-7
		c-13.9,0-25.4,11.4-25.4,25.4c0,13.9,11.4,25.4,25.4,25.4c13.9,0,25.4-11.4,25.4-25.4c0-2,0-3.5-0.5-5.5l12.4,21.4
		c1,1.5,2.5,2.5,4,2.5c1,0,1.5,0,2-0.5l22.9-12.9C230.6,197.1,231.5,194.6,230.1,192.2z M163.2,205.4c-7.3,0-13.2-5.9-13.2-13.2
		s5.9-13.2,13.2-13.2c7.3,0,13.2,5.9,13.2,13.2S170.5,205.4,163.2,205.4z"/>
	<circle cx="163.2" cy="192.2" r="9.5"/>
</g>
</svg>
